<?xml version="1.0" encoding="iso-8859-1"?>
<!-- Generator: Adobe Illustrator 16.0.0, SVG Export Plug-In . SVG Version: 6.00 Build 0)  -->
<!DOCTYPE svg PUBLIC "-//W3C//DTD SVG 1.1//EN" "http://www.w3.org/Graphics/SVG/1.1/DTD/svg11.dtd">
<svg version="1.1" id="Capa_1" xmlns="http://www.w3.org/2000/svg" xmlns:xlink="http://www.w3.org/1999/xlink" x="0px" y="0px"
	 width="113.22px" height="113.22px" viewBox="0 0 113.22 113.22" style="enable-background:new 0 0 113.22 113.22;"
	 xml:space="preserve">
<g>
	<g>
		<circle cx="26.044" cy="14.601" r="11.857"/>
		<path d="M56.834,28.996l-19.11,0.313l-13.24-1.892c-1.139-0.572-2.391-0.963-3.73-1.104c-5.975-0.63-11.322,3.698-11.953,9.668
			L6.392,58.767c-0.169,1.605,0.029,3.162,0.513,4.599c-0.115,0.613-0.133,1.255-0.023,1.906l2.264,13.435l-8.958,26.227
			c-0.585,1.732,0.234,3.669,1.94,4.42c1.804,0.794,3.91-0.025,4.703-1.829l11.737-26.667c0.254-0.584,0.381-1.254,0.324-1.936
			l-0.033-0.408l-0.551-6.74l4.18,8.841l-0.271,24.087c-0.017,1.816,1.353,3.396,3.197,3.59c1.959,0.206,3.716-1.217,3.922-3.178
			l2.649-25.264c0.056-0.547-0.006-1.135-0.207-1.687l-0.149-0.416l-4.71-12.971c0.568-1.135,0.952-2.388,1.095-3.726l1.029-9.748
			l2.076,1.82l0.344,0.303c1.12,0.98,2.762,1.25,4.183,0.555l11.752-5.75c1.438-0.702,2.19-2.364,1.702-3.94
			c-0.538-1.742-2.387-2.717-4.129-2.178l-9.699,2.999l-5.043-5.026l0.193-1.819c0.021-0.217,0.024-0.431,0.035-0.646l6.616,0.244
			l0.455,0.017c0.07,0.002,0.144-0.001,0.214-0.009l19.532-2.306c1.652-0.202,2.937-1.625,2.908-3.327
			C60.152,30.418,58.652,28.966,56.834,28.996z"/>
		<circle cx="90.088" cy="16.692" r="11.857"/>
		<path d="M113.115,106.052l-6.166-25.034l2.302-13.656c0.024-0.147,0.046-0.31,0.059-0.461c0.04-0.496,0.007-0.979-0.08-1.446
			c0.482-1.436,0.683-2.992,0.512-4.598l-2.407-22.786c-0.631-5.97-5.979-10.297-11.953-9.668c-2.768,0.292-5.172,1.607-6.903,3.519
			l-5.403,1.43l-9.93-6.207c-1.369-0.857-3.195-0.602-4.269,0.667c-1.178,1.392-1.003,3.474,0.388,4.651l10.592,8.958
			c0.456,0.383,1.017,0.636,1.615,0.758l-2.135,1.438l-10.527-6.432c-1.39-0.851-3.229-0.562-4.283,0.74
			c-1.146,1.416-0.928,3.493,0.488,4.639l11.959,9.677c1.223,0.985,2.98,1.175,4.417,0.336l0.354-0.208l4.935-2.882l1.443,13.653
			c0.141,1.337,0.524,2.589,1.094,3.725l-4.709,12.971l-0.156,0.43c-0.135,0.375-0.207,0.781-0.205,1.203l0.144,25.382
			c0.016,1.815,1.409,3.373,3.256,3.536c1.965,0.173,3.695-1.279,3.869-3.243l2.129-24.22l4.282-9.062l-0.55,6.74l-0.036,0.44
			c-0.039,0.5,0.021,1.017,0.197,1.521l8.844,25.512c0.603,1.716,2.426,2.741,4.228,2.298
			C112.419,109.901,113.588,107.966,113.115,106.052z"/>
	</g>
</g>
<g>
</g>
<g>
</g>
<g>
</g>
<g>
</g>
<g>
</g>
<g>
</g>
<g>
</g>
<g>
</g>
<g>
</g>
<g>
</g>
<g>
</g>
<g>
</g>
<g>
</g>
<g>
</g>
<g>
</g>
</svg>
