<svg height="464pt" viewBox="0 -24 464 464" width="464pt" xmlns="http://www.w3.org/2000/svg"><path d="m168 360v48c0 4.417969 3.582031 8 8 8h48.160156c1.835938.003906 3.617188-.628906 5.039063-1.792969l76.65625-62.207031h150.144531c4.417969 0 8-3.582031 8-8v-112c0-128.128906-103.871094-232-232-232s-232 103.871094-232 232v32c0 4.417969 3.582031 8 8 8h160zm48 40h-32v-32h32zm0-48h-32v-32h32zm0-48h-32v-32h32zm16 87.335938v-20.640626l49.3125-39.953124 10.6875 11.890624zm0-41.230469v-74.144531l38.59375 42.871093zm206.320312-182.105469h-66.320312c-2.210938 0-4-1.789062-4-4 0-11.046875-8.953125-20-20-20h-72c-6.628906 0-12-5.371094-12-12s5.371094-12 12-12h64c11.046875 0 20-8.953125 20-20s-8.953125-20-20-20h-8c-2.210938 0-4-1.789062-4-4s1.789062-4 4-4h44.953125c28.65625 25.949219 49.847656 59.097656 61.367187 96zm-287.785156-136h57.464844c4.417969 0 8 3.582031 8 8s-3.582031 8-8 8h-88.984375c10.050781-6.1875 20.59375-11.539062 31.519531-16zm-86.183594 64h59.648438c2.210938 0 4 1.789062 4 4s-1.789062 4-4 4h-8c-11.046875 0-20 8.953125-20 20s8.953125 20 20 20h64c6.628906 0 12 5.371094 12 12s-5.371094 12-12 12h-72c-11.046875 0-20 8.953125-20 20 0 2.210938-1.789062 4-4 4h-64.222656c6.628906-35.214844 21.953125-68.210938 44.574218-96zm-46.984374 112h66.632812c11.046875 0 20-8.953125 20-20 0-2.210938 1.789062-4 4-4h72c15.464844 0 28-12.535156 28-28s-12.535156-28-28-28h-64c-2.210938 0-4-1.789062-4-4s1.789062-4 4-4h8c11.046875 0 20-8.953125 20-20s-8.953125-20-20-20h-45.296875c5.621094-5.652344 11.542969-10.996094 17.746094-16h111.550781c12.128906.0625 22.390625-8.949219 23.894531-20.988281 1.5-12.035157-6.234375-23.292969-18.007812-26.210938 5.976562-.480469 12.007812-.800781 18.113281-.800781 19.636719.003906 39.179688 2.695312 58.089844 8h-26.089844v16h66.761719c9.109375 4.703125 17.871093 10.050781 26.222656 16h-24.984375c-11.046875 0-20 8.953125-20 20s8.953125 20 20 20h8c2.210938 0 4 1.789062 4 4s-1.789062 4-4 4h-64c-15.464844 0-28 12.535156-28 28s12.535156 28 28 28h72c2.210938 0 4 1.789062 4 4 0 11.046875 8.953125 20 20 20h70.558594c1.203125 5.273438 2.25 10.59375 3.058594 16h-37.617188v16h39.34375c.390625 5.289062.65625 10.617188.65625 16h-22.335938v16h22.335938v56h-124.441406l-14.398438-16h34.839844v-16h-48v1.375l-42.054688-46.726562c-1.519531-1.683594-3.679687-2.648438-5.945312-2.648438h-231.800781c.199219-5.382812.601562-10.71875 1.167969-16zm-1.367188 48v-16h228.441406l69.597656 77.351562c1.519532 1.691407 3.6875 2.652344 5.960938 2.648438h128v16h-140.441406l-69.597656-77.351562c-1.519532-1.691407-3.6875-2.652344-5.960938-2.648438zm0 0"/><path d="m364.59375 221.023438 28 69.945312 14.863281-5.9375-28-69.953125c-3.621093-9.128906-12.464843-15.113281-22.289062-15.078125h-77.167969v16h77.167969c3.269531 0 6.207031 1.988281 7.425781 5.023438zm0 0"/><path d="m168 80h24v16h-24zm0 0"/><path d="m304 240h16v16h-16zm0 0"/><path d="m216 192h32v16h-32zm0 0"/><path d="m256 72h32v16h-32zm0 0"/><path d="m216 104h16v16h-16zm0 0"/></svg>