<svg height="512pt" viewBox="0 0 512.00013 512" width="512pt" xmlns="http://www.w3.org/2000/svg"><path d="m255.996094 309.621094c20.359375 0 38.277344-12.253906 45.652344-31.21875 1.53125-3.933594-.417969-8.367188-4.355469-9.898438-3.933594-1.53125-8.367188.417969-9.898438 4.355469-5.070312 13.039063-17.394531 21.464844-31.398437 21.464844-13.992188 0-26.320313-8.425781-31.398438-21.46875-1.535156-3.933594-5.964844-5.882813-9.902344-4.351563-3.9375 1.535156-5.882812 5.96875-4.351562 9.902344 7.386719 18.960938 25.304688 31.214844 45.652344 31.214844zm0 0"/><path d="m402.28125 331.300781c3.84375 1.761719 8.382812.070313 10.140625-3.769531 10.3125-22.511719 15.539063-46.578125 15.539063-71.535156 0-94.820313-77.136719-171.960938-171.957032-171.960938-94.824218 0-171.96875 77.140625-171.96875 171.960938 0 94.820312 77.144532 171.96875 171.96875 171.96875 55.699219 0 108.195313-27.175782 140.429688-72.695313 2.441406-3.445312 1.625-8.21875-1.824219-10.660156-3.445313-2.445313-8.21875-1.625-10.660156 1.820313-29.371094 41.476562-77.199219 66.238281-127.945313 66.238281-86.390625 0-156.671875-70.285157-156.671875-156.671875 0-86.386719 70.28125-156.664063 156.671875-156.664063 86.382813 0 156.664063 70.277344 156.664063 156.664063 0 22.742187-4.761719 44.667968-14.152344 65.167968-1.761719 3.839844-.074219 8.378907 3.765625 10.136719zm0 0"/><path d="m510.066406 250.914062-45.253906-50.882812 13.785156-66.691406c.785156-3.804688-1.402344-7.59375-5.089844-8.808594l-64.675781-21.359375-21.359375-64.679687c-1.21875-3.683594-5-5.875-8.8125-5.089844l-66.691406 13.785156-50.882812-45.253906c-2.898438-2.578125-7.265626-2.578125-10.164063 0l-50.878906 45.253906-66.703125-13.785156c-3.804688-.785156-7.59375 1.402344-8.8125 5.089844l-21.347656 64.675781-9.507813 3.136719c-4.011719 1.324218-6.1875 5.648437-4.863281 9.660156 1.320312 4.011718 5.640625 6.191406 9.660156 4.867187l13.164062-4.34375c2.300782-.761719 4.105469-2.566406 4.863282-4.867187l20.421875-61.859375 63.789062 13.179687c2.367188.492188 4.824219-.167968 6.628907-1.773437l48.667968-43.285157 48.667969 43.285157c1.808594 1.605469 4.261719 2.261719 6.632813 1.773437l63.777343-13.179687 20.429688 61.859375c.761719 2.300781 2.566406 4.105468 4.867187 4.867187l61.863282 20.429688-13.183594 63.78125c-.488282 2.367187.167968 4.824219 1.773437 6.628906l43.285157 48.667969-43.285157 48.667968c-1.605469 1.804688-2.265625 4.265626-1.773437 6.628907l13.183594 63.78125-61.875 20.429687c-2.300782.761719-4.101563 2.566406-4.863282 4.867188l-20.421875 61.859375-63.777343-13.183594c-2.371094-.488281-4.824219.171875-6.632813 1.777344l-48.667969 43.292969-48.664062-43.292969c-1.808594-1.609375-4.265625-2.265625-6.632813-1.777344l-63.789062 13.183594-20.421875-61.863281c-.757813-2.300782-2.5625-4.101563-4.863282-4.863282l-61.863281-20.429687 13.183594-63.78125c.488281-2.367188-.171875-4.824219-1.777344-6.632813l-43.292969-48.664062 43.292969-48.667969c1.605469-1.804687 2.265625-4.265625 1.777344-6.632813l-13.183594-63.777343 19.878907-6.5625c4.011718-1.324219 6.1875-5.648438 4.863281-9.660157-1.320313-4.011718-5.644531-6.1875-9.660157-4.867187l-26.347656 8.699219c-3.691406 1.21875-5.882812 5.007812-5.09375 8.8125l13.785156 66.691406-45.261718 50.878906c-2.578125 2.898438-2.578125 7.269532 0 10.167969l45.261718 50.882813-13.785156 66.691406c-.785156 3.800781 1.402344 7.589844 5.09375 8.808594l64.675782 21.359374 21.347656 64.675782c1.21875 3.6875 5.003906 5.878906 8.8125 5.09375l66.699218-13.785156 50.882813 45.261718c1.449219 1.289063 3.265625 1.933594 5.082031 1.933594 1.820313 0 3.632813-.644531 5.085938-1.933594l50.878906-45.261718 66.691406 13.785156c3.808594.785156 7.59375-1.40625 8.8125-5.09375l21.347656-64.675782 64.6875-21.359374c3.6875-1.21875 5.878907-5.007813 5.089844-8.808594l-13.78125-66.691406 45.25-50.882813c2.578125-2.898437 2.578125-7.265625 0-10.164063zm0 0"/><path d="m232.066406 216.5c0-19.851562-16.148437-36.003906-36.003906-36.003906-19.851562 0-36.003906 16.152344-36.003906 36.003906 0 19.855469 16.152344 36.003906 36.003906 36.003906 19.855469 0 36.003906-16.148437 36.003906-36.003906zm-19.203125 12.058594c-2.492187-3.480469-3.898437-7.695313-3.898437-12.0625 0-4.355469 1.40625-8.570313 3.898437-12.054688 2.449219 3.402344 3.910157 7.558594 3.910157 12.058594 0 4.503906-1.460938 8.660156-3.910157 12.058594zm-37.507812-12.058594c0-11.417969 9.289062-20.707031 20.707031-20.707031 1.34375 0 2.65625.136719 3.929688.382812-4.050782 5.929688-6.320313 13.007813-6.320313 20.320313 0 7.320312 2.269531 14.402344 6.320313 20.328125-1.273438.246093-2.585938.386719-3.929688.386719-11.417969 0-20.707031-9.289063-20.707031-20.710938zm0 0"/><path d="m351.945312 216.5c0-19.851562-16.152343-36.003906-36.007812-36.003906-19.851562 0-36.003906 16.152344-36.003906 36.003906 0 19.855469 16.152344 36.003906 36.003906 36.003906 19.855469 0 36.007812-16.148437 36.007812-36.003906zm-15.296874 0c0 11.417969-9.289063 20.710938-20.710938 20.710938-1.339844 0-2.648438-.140626-3.917969-.386719 4.050781-5.925781 6.320313-13.003907 6.320313-20.320313 0-7.320312-2.269532-14.402344-6.320313-20.328125 1.269531-.242187 2.578125-.382812 3.921875-.382812 11.414063 0 20.707032 9.289062 20.707032 20.707031zm-37.507813-12.0625c2.496094 3.480469 3.902344 7.699219 3.902344 12.066406 0 4.363282-1.40625 8.578125-3.902344 12.0625-2.449219-3.402344-3.910156-7.5625-3.910156-12.066406 0-4.5 1.460937-8.660156 3.910156-12.0625zm0 0"/></svg>