<?xml version="1.0" encoding="iso-8859-1"?>
<!-- Generator: Adobe Illustrator 19.0.0, SVG Export Plug-In . SVG Version: 6.00 Build 0)  -->
<svg version="1.1" id="Layer_1" xmlns="http://www.w3.org/2000/svg" xmlns:xlink="http://www.w3.org/1999/xlink" x="0px" y="0px"
	 viewBox="0 0 512.001 512.001" style="enable-background:new 0 0 512.001 512.001;" xml:space="preserve">
<g>
	<g>
		<g>
			<path d="M256,222.571c14.041,0,25.464-11.423,25.464-25.464v-20.16c0-14.041-11.423-25.464-25.464-25.464
				c-14.041,0-25.464,11.423-25.464,25.464v20.16C230.536,211.148,241.959,222.571,256,222.571z M246.79,176.948
				c0-5.079,4.132-9.21,9.21-9.21c5.079,0,9.21,4.132,9.21,9.21v20.16c0,5.079-4.132,9.21-9.21,9.21c-5.079,0-9.21-4.132-9.21-9.21
				V176.948z"/>
			<path d="M367.922,412.673c-4.488,0-8.127,3.639-8.127,8.127v22.394c0,4.488,3.639,8.127,8.127,8.127s8.127-3.639,8.127-8.127
				v-22.394C376.049,416.31,372.41,412.673,367.922,412.673z"/>
			<path d="M466.297,439.066c0-38.543-31.358-69.9-69.9-69.9h-73.229c42.772-22.046,73.398-64.456,78.996-114.329
				c24.869-3.51,44.065-24.922,44.065-50.744c0-25.804-19.169-47.205-44.013-50.737c-0.7-6.416-1.815-12.707-3.317-18.85
				c8.807-9.447,13.78-21.923,13.78-34.955c0-25.425-18.778-46.891-43.491-50.66c-11.949-18.267-32.414-29.448-54.387-29.448
				c-9.572,0-19.073,2.149-27.681,6.202c-10.035-2.169-20.445-3.323-31.12-3.323c-9.966,0-19.702,1.001-29.116,2.9
				c-5.165-9.908-13.076-18.361-23.036-24.127c-3.884-2.247-8.855-0.922-11.104,2.962c-2.248,3.885-0.922,8.856,2.962,11.104
				c6.142,3.555,11.199,8.522,14.893,14.339c-13.665,4.445-26.458,10.838-38.05,18.853c-3.593-4.057-7.84-7.579-12.651-10.363
				c-3.884-2.247-8.856-0.921-11.104,2.963c-2.248,3.885-0.922,8.856,2.963,11.104c2.967,1.717,5.612,3.852,7.907,6.288
				c-27.27,23.683-45.757,57.22-49.88,95.011c-24.844,3.532-44.013,24.933-44.013,50.737c0,25.823,19.195,47.234,44.065,50.744
				c5.598,49.873,36.224,92.283,78.996,114.329h-73.229c-38.543,0-69.9,31.357-69.9,69.9v64.808c0,4.488,3.639,8.127,8.127,8.127
				h404.345c2.155,0,4.223-0.856,5.746-2.381c1.525-1.525,2.381-3.591,2.381-5.746L466.297,439.066z M403.097,170.051
				c15.394,3.675,26.879,17.539,26.879,34.043s-11.485,30.367-26.879,34.044V170.051z M108.903,238.137
				c-15.394-3.675-26.879-17.539-26.879-34.044c0-16.504,11.485-30.367,26.879-34.043V238.137z M357.249,60.521
				c1.347,2.386,3.804,3.933,6.538,4.115c18.303,1.219,32.639,16.556,32.639,34.915c0,5.485-1.298,10.824-3.695,15.626
				c-13.98-35.118-41.116-63.618-75.289-79.392C333.964,36.687,349.045,45.98,357.249,60.521z M125.157,238.323v-68.907
				c0-38.238,16.49-72.696,42.73-96.641c0.884,3.084,1.363,6.305,1.363,9.59c0,4.488,3.639,8.127,8.127,8.127
				s8.127-3.639,8.127-8.127c0-7.08-1.496-13.968-4.231-20.289c10.726-7.491,22.619-13.417,35.351-17.445
				c0.51,2.658,0.787,5.378,0.787,8.133c0,4.488,3.639,8.127,8.127,8.127s8.127-3.639,8.127-8.127c0-4.092-0.429-8.128-1.245-12.058
				c7.652-1.398,15.533-2.134,23.582-2.134c72.147,0,130.843,58.696,130.843,130.843v68.907
				c0,72.147-58.696,130.843-130.843,130.843C183.853,369.166,125.157,310.471,125.157,238.323z M306.675,376.422v0.871
				c0,27.942-22.732,50.676-50.676,50.676c-27.942,0-50.676-22.732-50.676-50.676v-0.871c15.805,5.819,32.876,8.998,50.676,8.998
				C273.799,385.42,290.869,382.24,306.675,376.422z M395.192,495.746v-35.757c0-4.488-3.639-8.127-8.127-8.127
				s-8.127,3.639-8.127,8.127v35.757H133.06v-35.757c0-4.488-3.639-8.127-8.127-8.127c-4.488,0-8.127,3.639-8.127,8.127v35.757
				H61.955v-56.681c0-29.581,24.066-53.647,53.647-53.647h73.98c4.026,33.084,32.266,58.802,66.418,58.802
				c34.152,0,62.392-25.719,66.418-58.802h73.98c29.581,0,53.648,24.066,53.649,53.647v56.681H395.192z"/>
			<path d="M219.57,169.64c0-19.551-15.906-35.457-35.456-35.457s-35.456,15.906-35.456,35.457
				c0,19.551,15.906,35.456,35.456,35.456S219.57,189.191,219.57,169.64z M164.911,169.64c0-10.589,8.614-19.203,19.202-19.203
				c10.588,0,19.202,8.614,19.202,19.203c0,10.588-8.614,19.202-19.202,19.202C173.525,188.842,164.911,180.227,164.911,169.64z"/>
			<path d="M332.971,313.748c2.584-2.829,3.807-6.605,3.44-10.631c-1.81-19.988-10.977-38.498-25.812-52.124
				c-14.93-13.712-34.321-21.263-54.605-21.263c-20.282,0-39.674,7.551-54.604,21.263c-14.835,13.625-24.002,32.137-25.812,52.123
				c-0.365,4.028,0.857,7.803,3.441,10.632c1.779,1.947,4.966,4.222,10.341,4.746v13.657c0,12.846,10.451,23.297,23.297,23.297
				s23.297-10.451,23.297-23.297v-13.545h84.326C327.101,318.608,330.947,315.965,332.971,313.748z M219.7,332.152
				c0,3.884-3.16,7.043-7.043,7.043c-3.884,0-7.043-3.16-7.043-7.043v-13.545H219.7V332.152z M293.373,302.354h-9.05v-9.948h9.05
				V302.354z M309.626,302.354v-11.531c0-8.089-6.582-14.671-14.671-14.671h-12.215c-8.09,0-14.672,6.582-14.672,14.671v11.531
				h-76.063c1.898-15.097,9.08-29.013,20.379-39.389c11.923-10.95,27.41-16.98,43.61-16.98c16.199,0,31.687,6.03,43.61,16.98
				c11.297,10.375,18.479,24.292,20.379,39.389H309.626z"/>
			<path d="M155.827,441.206c-4.488,0-8.127,3.639-8.127,8.127v14.809c0,4.488,3.639,8.127,8.127,8.127
				c4.488,0,8.127-3.639,8.127-8.127v-14.809C163.954,444.844,160.316,441.206,155.827,441.206z"/>
			<path d="M274.647,99.361c4.488,0,8.127-3.639,8.127-8.127c0-10.889,4.049-21.304,11.4-29.325c3.033-3.309,2.809-8.45-0.5-11.483
				c-3.309-3.033-8.45-2.809-11.483,0.5c-10.107,11.026-15.673,25.342-15.673,40.308C266.52,95.723,270.158,99.361,274.647,99.361z"
				/>
			<path d="M289.876,165.157c-1.992,2.18-2.977,5.172-2.7,8.205c1.918,21.177,19.415,37.147,40.701,37.147
				s38.783-15.97,40.701-37.145c0.275-3.035-0.709-6.027-2.7-8.207c-0.742-0.812-1.794-1.697-3.219-2.394
				c-3.211-16.27-17.583-28.58-34.781-28.58c-17.197,0-31.57,12.309-34.781,28.58C291.671,163.46,290.618,164.346,289.876,165.157z
				 M327.876,150.438c7.681,0,14.304,4.543,17.373,11.076h-34.745C313.572,154.981,320.195,150.438,327.876,150.438z
				 M351.138,177.767c-3.345,9.714-12.499,16.489-23.261,16.489s-19.916-6.773-23.261-16.489H351.138z"/>
		</g>
	</g>
</g>
<g>
</g>
<g>
</g>
<g>
</g>
<g>
</g>
<g>
</g>
<g>
</g>
<g>
</g>
<g>
</g>
<g>
</g>
<g>
</g>
<g>
</g>
<g>
</g>
<g>
</g>
<g>
</g>
<g>
</g>
</svg>
